<?xml version="1.0" encoding="UTF-8" standalone="no"?>
<!DOCTYPE svg PUBLIC "-//W3C//DTD SVG 1.1//EN"
 "http://www.w3.org/Graphics/SVG/1.1/DTD/svg11.dtd">
<!-- Generated by graphviz version 2.24.0 (20090616.2323)
 -->
<!-- Title: models_diagram Pages: 1 -->
<svg width="664pt" height="662pt"
 viewBox="0.00 0.00 664.00 662.00" xmlns="http://www.w3.org/2000/svg" xmlns:xlink="http://www.w3.org/1999/xlink">
<g id="graph1" class="graph" transform="scale(1 1) rotate(0) translate(4 658)">
<title>models_diagram</title>
<polygon fill="white" stroke="white" points="-4,5 -4,-658 661,-658 661,5 -4,5"/>
<!-- Album -->
<g id="node1" class="node"><title>Album</title>
<polyline fill="none" stroke="black" points="87.5,-235 198.5,-235 "/>
<path fill="none" stroke="black" d="M198.5,-235C204.5,-235 210.5,-241 210.5,-247"/>
<polyline fill="none" stroke="black" points="210.5,-247 210.5,-337 "/>
<path fill="none" stroke="black" d="M210.5,-337C210.5,-343 204.5,-349 198.5,-349"/>
<polyline fill="none" stroke="black" points="198.5,-349 87.5,-349 "/>
<path fill="none" stroke="black" d="M87.5,-349C81.5,-349 75.5,-343 75.5,-337"/>
<polyline fill="none" stroke="black" points="75.5,-337 75.5,-247 "/>
<path fill="none" stroke="black" d="M75.5,-247C75.5,-241 81.5,-235 87.5,-235"/>
<text text-anchor="middle" x="143" y="-332.4" font-family="Times,serif" font-size="14.00">Album</text>
<polyline fill="none" stroke="black" points="75.5,-327 210.5,-327 "/>
<text text-anchor="start" x="83.5" y="-310.4" font-family="Times,serif" font-size="14.00">nome :string</text>
<text text-anchor="start" x="83.5" y="-296.4" font-family="Times,serif" font-size="14.00">atalho :string</text>
<text text-anchor="start" x="83.5" y="-282.4" font-family="Times,serif" font-size="14.00">image_url :string</text>
<text text-anchor="start" x="83.5" y="-268.4" font-family="Times,serif" font-size="14.00">ano :integer</text>
<text text-anchor="start" x="83.5" y="-254.4" font-family="Times,serif" font-size="14.00">created_at :datetime</text>
<text text-anchor="start" x="83.5" y="-240.4" font-family="Times,serif" font-size="14.00">updated_at :datetime</text>
</g>
<!-- Link -->
<g id="node4" class="node"><title>Link</title>
<polyline fill="none" stroke="black" points="87.5,-111 198.5,-111 "/>
<path fill="none" stroke="black" d="M198.5,-111C204.5,-111 210.5,-117 210.5,-123"/>
<polyline fill="none" stroke="black" points="210.5,-123 210.5,-185 "/>
<path fill="none" stroke="black" d="M210.5,-185C210.5,-191 204.5,-197 198.5,-197"/>
<polyline fill="none" stroke="black" points="198.5,-197 87.5,-197 "/>
<path fill="none" stroke="black" d="M87.5,-197C81.5,-197 75.5,-191 75.5,-185"/>
<polyline fill="none" stroke="black" points="75.5,-185 75.5,-123 "/>
<path fill="none" stroke="black" d="M75.5,-123C75.5,-117 81.5,-111 87.5,-111"/>
<text text-anchor="middle" x="143" y="-180.4" font-family="Times,serif" font-size="14.00">Link</text>
<polyline fill="none" stroke="black" points="75.5,-175 210.5,-175 "/>
<text text-anchor="start" x="83.5" y="-158.4" font-family="Times,serif" font-size="14.00">url :string</text>
<text text-anchor="start" x="83.5" y="-144.4" font-family="Times,serif" font-size="14.00">is_torrent :boolean</text>
<text text-anchor="start" x="83.5" y="-130.4" font-family="Times,serif" font-size="14.00">created_at :datetime</text>
<text text-anchor="start" x="83.5" y="-116.4" font-family="Times,serif" font-size="14.00">updated_at :datetime</text>
</g>
<!-- Album&#45;&gt;Link -->
<g id="edge2" class="edge"><title>Album&#45;&gt;Link</title>
<path fill="none" stroke="black" d="M143,-224.562C143,-218.125 143,-211.67 143,-205.421"/>
<polygon fill="black" stroke="black" points="143,-224.674 138.5,-234.674 143,-229.674 143,-234.674 143,-234.674 143,-234.674 143,-229.674 147.5,-234.675 143,-224.674 143,-224.674"/>
<ellipse fill="black" stroke="black" cx="143" cy="-201.048" rx="4" ry="4"/>
</g>
<!-- Arquivo -->
<g id="node2" class="node"><title>Arquivo</title>
<polyline fill="none" stroke="black" points="427.5,-256 490.5,-256 "/>
<path fill="none" stroke="black" d="M490.5,-256C496.5,-256 502.5,-262 502.5,-268"/>
<polyline fill="none" stroke="black" points="502.5,-268 502.5,-316 "/>
<path fill="none" stroke="black" d="M502.5,-316C502.5,-322 496.5,-328 490.5,-328"/>
<polyline fill="none" stroke="black" points="490.5,-328 427.5,-328 "/>
<path fill="none" stroke="black" d="M427.5,-328C421.5,-328 415.5,-322 415.5,-316"/>
<polyline fill="none" stroke="black" points="415.5,-316 415.5,-268 "/>
<path fill="none" stroke="black" d="M415.5,-268C415.5,-262 421.5,-256 427.5,-256"/>
<text text-anchor="middle" x="459" y="-311.4" font-family="Times,serif" font-size="14.00">Arquivo</text>
<polyline fill="none" stroke="black" points="415.5,-306 502.5,-306 "/>
<text text-anchor="start" x="423.5" y="-289.4" font-family="Times,serif" font-size="14.00">nome :string</text>
<text text-anchor="start" x="423.5" y="-275.4" font-family="Times,serif" font-size="14.00">pasta :string</text>
<text text-anchor="start" x="423.5" y="-261.4" font-family="Times,serif" font-size="14.00">size :integer</text>
</g>
<!-- Banda -->
<g id="node3" class="node"><title>Banda</title>
<polyline fill="none" stroke="black" points="125.5,-387 236.5,-387 "/>
<path fill="none" stroke="black" d="M236.5,-387C242.5,-387 248.5,-393 248.5,-399"/>
<polyline fill="none" stroke="black" points="248.5,-399 248.5,-461 "/>
<path fill="none" stroke="black" d="M248.5,-461C248.5,-467 242.5,-473 236.5,-473"/>
<polyline fill="none" stroke="black" points="236.5,-473 125.5,-473 "/>
<path fill="none" stroke="black" d="M125.5,-473C119.5,-473 113.5,-467 113.5,-461"/>
<polyline fill="none" stroke="black" points="113.5,-461 113.5,-399 "/>
<path fill="none" stroke="black" d="M113.5,-399C113.5,-393 119.5,-387 125.5,-387"/>
<text text-anchor="middle" x="181" y="-456.4" font-family="Times,serif" font-size="14.00">Banda</text>
<polyline fill="none" stroke="black" points="113.5,-451 248.5,-451 "/>
<text text-anchor="start" x="121.5" y="-434.4" font-family="Times,serif" font-size="14.00">nome :string</text>
<text text-anchor="start" x="121.5" y="-420.4" font-family="Times,serif" font-size="14.00">atalho :string</text>
<text text-anchor="start" x="121.5" y="-406.4" font-family="Times,serif" font-size="14.00">created_at :datetime</text>
<text text-anchor="start" x="121.5" y="-392.4" font-family="Times,serif" font-size="14.00">updated_at :datetime</text>
</g>
<!-- Banda&#45;&gt;Album -->
<g id="edge4" class="edge"><title>Banda&#45;&gt;Album</title>
<path fill="none" stroke="black" d="M166.401,-376.982C164.592,-370.411 162.726,-363.636 160.874,-356.912"/>
<polygon fill="black" stroke="black" points="166.426,-377.073 164.742,-387.909 167.753,-381.894 169.081,-386.715 169.081,-386.715 169.081,-386.715 167.753,-381.894 173.419,-385.52 166.426,-377.073 166.426,-377.073"/>
<ellipse fill="black" stroke="black" cx="159.774" cy="-352.915" rx="4.00001" ry="4.00001"/>
</g>
<!-- Voto -->
<g id="node10" class="node"><title>Voto</title>
<polyline fill="none" stroke="black" points="22,-1 130,-1 "/>
<path fill="none" stroke="black" d="M130,-1C136,-1 142,-7 142,-13"/>
<polyline fill="none" stroke="black" points="142,-13 142,-61 "/>
<path fill="none" stroke="black" d="M142,-61C142,-67 136,-73 130,-73"/>
<polyline fill="none" stroke="black" points="130,-73 22,-73 "/>
<path fill="none" stroke="black" d="M22,-73C16,-73 10,-67 10,-61"/>
<polyline fill="none" stroke="black" points="10,-61 10,-13 "/>
<path fill="none" stroke="black" d="M10,-13C10,-7 16,-1 22,-1"/>
<text text-anchor="middle" x="76" y="-56.4" font-family="Times,serif" font-size="14.00">Voto</text>
<polyline fill="none" stroke="black" points="10,-51 142,-51 "/>
<text text-anchor="start" x="18" y="-34.4" font-family="Times,serif" font-size="14.00">ponto :integer</text>
<text text-anchor="start" x="18" y="-20.4" font-family="Times,serif" font-size="14.00">comentario :string</text>
<text text-anchor="start" x="18" y="-6.4" font-family="Times,serif" font-size="14.00">created_at :datetime</text>
</g>
<!-- Link&#45;&gt;Voto -->
<g id="edge6" class="edge"><title>Link&#45;&gt;Voto</title>
<path fill="none" stroke="black" d="M113.188,-101.94C109.014,-94.6507 104.762,-87.2268 100.697,-80.128"/>
<polygon fill="black" stroke="black" points="113.273,-102.088 114.337,-113.002 115.757,-106.427 118.242,-110.766 118.242,-110.766 118.242,-110.766 115.757,-106.427 122.147,-108.53 113.273,-102.088 113.273,-102.088"/>
<ellipse fill="black" stroke="black" cx="98.6917" cy="-76.6258" rx="4.00002" ry="4.00002"/>
</g>
<!-- Piece -->
<g id="node5" class="node"><title>Piece</title>
<polyline fill="none" stroke="black" points="569.5,-263 644.5,-263 "/>
<path fill="none" stroke="black" d="M644.5,-263C650.5,-263 656.5,-269 656.5,-275"/>
<polyline fill="none" stroke="black" points="656.5,-275 656.5,-309 "/>
<path fill="none" stroke="black" d="M656.5,-309C656.5,-315 650.5,-321 644.5,-321"/>
<polyline fill="none" stroke="black" points="644.5,-321 569.5,-321 "/>
<path fill="none" stroke="black" d="M569.5,-321C563.5,-321 557.5,-315 557.5,-309"/>
<polyline fill="none" stroke="black" points="557.5,-309 557.5,-275 "/>
<path fill="none" stroke="black" d="M557.5,-275C557.5,-269 563.5,-263 569.5,-263"/>
<text text-anchor="middle" x="607" y="-304.4" font-family="Times,serif" font-size="14.00">Piece</text>
<polyline fill="none" stroke="black" points="557.5,-299 656.5,-299 "/>
<text text-anchor="start" x="565.5" y="-282.4" font-family="Times,serif" font-size="14.00">pieces :text</text>
<text text-anchor="start" x="565.5" y="-268.4" font-family="Times,serif" font-size="14.00">length :integer</text>
</g>
<!-- Torrent -->
<g id="node6" class="node"><title>Torrent</title>
<polyline fill="none" stroke="black" points="405,-387 513,-387 "/>
<path fill="none" stroke="black" d="M513,-387C519,-387 525,-393 525,-399"/>
<polyline fill="none" stroke="black" points="525,-399 525,-461 "/>
<path fill="none" stroke="black" d="M525,-461C525,-467 519,-473 513,-473"/>
<polyline fill="none" stroke="black" points="513,-473 405,-473 "/>
<path fill="none" stroke="black" d="M405,-473C399,-473 393,-467 393,-461"/>
<polyline fill="none" stroke="black" points="393,-461 393,-399 "/>
<path fill="none" stroke="black" d="M393,-399C393,-393 399,-387 405,-387"/>
<text text-anchor="middle" x="459" y="-456.4" font-family="Times,serif" font-size="14.00">Torrent</text>
<polyline fill="none" stroke="black" points="393,-451 525,-451 "/>
<text text-anchor="start" x="401" y="-434.4" font-family="Times,serif" font-size="14.00">nome :string</text>
<text text-anchor="start" x="401" y="-420.4" font-family="Times,serif" font-size="14.00">fixhash :string</text>
<text text-anchor="start" x="401" y="-406.4" font-family="Times,serif" font-size="14.00">size :integer</text>
<text text-anchor="start" x="401" y="-392.4" font-family="Times,serif" font-size="14.00">created_at :datetime</text>
</g>
<!-- Torrent&#45;&gt;Arquivo -->
<g id="edge16" class="edge"><title>Torrent&#45;&gt;Arquivo</title>
<path fill="none" stroke="black" d="M459,-376.325C459,-363.094 459,-349.072 459,-336.34"/>
<polygon fill="black" stroke="black" points="459,-376.715 454.5,-386.715 459,-381.715 459,-386.715 459,-386.715 459,-386.715 459,-381.715 463.5,-386.715 459,-376.715 459,-376.715"/>
<ellipse fill="black" stroke="black" cx="459" cy="-332.18" rx="4" ry="4"/>
</g>
<!-- Torrent&#45;&gt;Link -->
<g id="edge10" class="edge"><title>Torrent&#45;&gt;Link</title>
<path fill="none" stroke="black" d="M384.707,-416.865C342.106,-405.752 290.586,-385.683 257,-350 219.817,-310.495 246.807,-280.583 219,-234 212.637,-223.34 204.625,-212.951 196.207,-203.378"/>
<ellipse fill="none" stroke="black" cx="388.673" cy="-417.862" rx="4.00001" ry="4.00001"/>
<ellipse fill="black" stroke="black" cx="193.313" cy="-200.177" rx="4.00002" ry="4.00002"/>
</g>
<!-- Torrent&#45;&gt;Piece -->
<g id="edge8" class="edge"><title>Torrent&#45;&gt;Piece</title>
<path fill="none" stroke="black" d="M511.407,-381.134C530.551,-363.284 551.808,-343.463 569.406,-327.054"/>
<ellipse fill="none" stroke="black" cx="508.348" cy="-383.987" rx="4.00002" ry="4.00002"/>
<ellipse fill="black" stroke="black" cx="572.788" cy="-323.901" rx="4.00002" ry="4.00002"/>
</g>
<!-- TorrentsTracker -->
<g id="node7" class="node"><title>TorrentsTracker</title>
<polyline fill="none" stroke="black" points="375.5,-111 486.5,-111 "/>
<path fill="none" stroke="black" d="M486.5,-111C492.5,-111 498.5,-117 498.5,-123"/>
<polyline fill="none" stroke="black" points="498.5,-123 498.5,-185 "/>
<path fill="none" stroke="black" d="M498.5,-185C498.5,-191 492.5,-197 486.5,-197"/>
<polyline fill="none" stroke="black" points="486.5,-197 375.5,-197 "/>
<path fill="none" stroke="black" d="M375.5,-197C369.5,-197 363.5,-191 363.5,-185"/>
<polyline fill="none" stroke="black" points="363.5,-185 363.5,-123 "/>
<path fill="none" stroke="black" d="M363.5,-123C363.5,-117 369.5,-111 375.5,-111"/>
<text text-anchor="middle" x="431" y="-180.4" font-family="Times,serif" font-size="14.00">TorrentsTracker</text>
<polyline fill="none" stroke="black" points="363.5,-175 498.5,-175 "/>
<text text-anchor="start" x="371.5" y="-158.4" font-family="Times,serif" font-size="14.00">seeds :integer</text>
<text text-anchor="start" x="371.5" y="-144.4" font-family="Times,serif" font-size="14.00">leechs :integer</text>
<text text-anchor="start" x="371.5" y="-130.4" font-family="Times,serif" font-size="14.00">updated_at :datetime</text>
<text text-anchor="start" x="371.5" y="-116.4" font-family="Times,serif" font-size="14.00">created_at :datetime</text>
</g>
<!-- Torrent&#45;&gt;TorrentsTracker -->
<g id="edge14" class="edge"><title>Torrent&#45;&gt;TorrentsTracker</title>
<path fill="none" stroke="black" d="M498.614,-378.214C503.709,-369.222 508.14,-359.648 511,-350 525.653,-300.571 530.729,-281.631 511,-234 506.376,-222.836 499.353,-212.417 491.353,-203.03"/>
<polygon fill="black" stroke="black" points="498.487,-378.425 489.475,-384.673 495.909,-382.709 493.331,-386.993 493.331,-386.993 493.331,-386.993 495.909,-382.709 497.186,-389.314 498.487,-378.425 498.487,-378.425"/>
<ellipse fill="black" stroke="black" cx="488.637" cy="-199.994" rx="4.00002" ry="4.00002"/>
</g>
<!-- Tracker -->
<g id="node8" class="node"><title>Tracker</title>
<polyline fill="none" stroke="black" points="278,-256 386,-256 "/>
<path fill="none" stroke="black" d="M386,-256C392,-256 398,-262 398,-268"/>
<polyline fill="none" stroke="black" points="398,-268 398,-316 "/>
<path fill="none" stroke="black" d="M398,-316C398,-322 392,-328 386,-328"/>
<polyline fill="none" stroke="black" points="386,-328 278,-328 "/>
<path fill="none" stroke="black" d="M278,-328C272,-328 266,-322 266,-316"/>
<polyline fill="none" stroke="black" points="266,-316 266,-268 "/>
<path fill="none" stroke="black" d="M266,-268C266,-262 272,-256 278,-256"/>
<text text-anchor="middle" x="332" y="-311.4" font-family="Times,serif" font-size="14.00">Tracker</text>
<polyline fill="none" stroke="black" points="266,-306 398,-306 "/>
<text text-anchor="start" x="274" y="-289.4" font-family="Times,serif" font-size="14.00">nome :string</text>
<text text-anchor="start" x="274" y="-275.4" font-family="Times,serif" font-size="14.00">url :string</text>
<text text-anchor="start" x="274" y="-261.4" font-family="Times,serif" font-size="14.00">created_at :datetime</text>
</g>
<!-- Torrent&#45;&gt;Tracker -->
<g id="edge12" class="edge"><title>Torrent&#45;&gt;Tracker</title>
<path fill="none" stroke="black" d="M412.136,-379.077C399.018,-364.822 384.879,-349.459 372.185,-335.665"/>
<polygon fill="black" stroke="black" points="412.393,-379.356 415.854,-389.762 415.779,-383.035 419.165,-386.715 419.165,-386.715 419.165,-386.715 415.779,-383.035 422.476,-383.667 412.393,-379.356 412.393,-379.356"/>
<polygon fill="black" stroke="black" points="372.068,-335.539 368.608,-325.133 368.682,-331.86 365.296,-328.18 365.296,-328.18 365.296,-328.18 368.682,-331.86 361.985,-331.228 372.068,-335.539 372.068,-335.539"/>
</g>
<!-- Tracker&#45;&gt;Link -->
<g id="edge20" class="edge"><title>Tracker&#45;&gt;Link</title>
<path fill="none" stroke="black" d="M274.091,-249.717C253.387,-234.6 229.912,-217.459 208.605,-201.902"/>
<polygon fill="black" stroke="black" points="274.266,-249.845 279.689,-259.376 278.304,-252.794 282.342,-255.742 282.342,-255.742 282.342,-255.742 278.304,-252.794 284.996,-252.108 274.266,-249.845 274.266,-249.845"/>
<ellipse fill="black" stroke="black" cx="205.298" cy="-199.488" rx="4.00002" ry="4.00002"/>
</g>
<!-- Tracker&#45;&gt;TorrentsTracker -->
<g id="edge18" class="edge"><title>Tracker&#45;&gt;TorrentsTracker</title>
<path fill="none" stroke="black" d="M363.918,-247.508C373.873,-233.632 384.918,-218.236 395.125,-204.008"/>
<polygon fill="black" stroke="black" points="363.84,-247.617 354.355,-253.119 360.926,-251.679 358.011,-255.742 358.011,-255.742 358.011,-255.742 360.926,-251.679 361.668,-258.365 363.84,-247.617 363.84,-247.617"/>
<ellipse fill="black" stroke="black" cx="397.728" cy="-200.379" rx="4.00002" ry="4.00002"/>
</g>
<!-- User -->
<g id="node9" class="node"><title>User</title>
<polyline fill="none" stroke="black" points="11.5,-511 122.5,-511 "/>
<path fill="none" stroke="black" d="M122.5,-511C128.5,-511 134.5,-517 134.5,-523"/>
<polyline fill="none" stroke="black" points="134.5,-523 134.5,-641 "/>
<path fill="none" stroke="black" d="M134.5,-641C134.5,-647 128.5,-653 122.5,-653"/>
<polyline fill="none" stroke="black" points="122.5,-653 11.5,-653 "/>
<path fill="none" stroke="black" d="M11.5,-653C5.5,-653 -0.5,-647 -0.5,-641"/>
<polyline fill="none" stroke="black" points="-0.5,-641 -0.5,-523 "/>
<path fill="none" stroke="black" d="M-0.5,-523C-0.5,-517 5.5,-511 11.5,-511"/>
<text text-anchor="middle" x="67" y="-636.4" font-family="Times,serif" font-size="14.00">User</text>
<polyline fill="none" stroke="black" points="-0.5,-631 134.5,-631 "/>
<text text-anchor="start" x="7.5" y="-614.4" font-family="Times,serif" font-size="14.00">username :string</text>
<text text-anchor="start" x="7.5" y="-600.4" font-family="Times,serif" font-size="14.00">normalizado :string</text>
<text text-anchor="start" x="7.5" y="-586.4" font-family="Times,serif" font-size="14.00">email :string</text>
<text text-anchor="start" x="7.5" y="-572.4" font-family="Times,serif" font-size="14.00">senha :string</text>
<text text-anchor="start" x="7.5" y="-558.4" font-family="Times,serif" font-size="14.00">info :string</text>
<text text-anchor="start" x="7.5" y="-544.4" font-family="Times,serif" font-size="14.00">confirmado :integer</text>
<text text-anchor="start" x="7.5" y="-530.4" font-family="Times,serif" font-size="14.00">created_at :datetime</text>
<text text-anchor="start" x="7.5" y="-516.4" font-family="Times,serif" font-size="14.00">updated_at :datetime</text>
</g>
<!-- User&#45;&gt;Album -->
<g id="edge28" class="edge"><title>User&#45;&gt;Album</title>
<path fill="none" stroke="black" d="M79.0878,-501.028C85.3329,-465.372 93.9823,-423.215 105,-386 107.839,-376.411 111.289,-366.449 114.94,-356.751"/>
<polygon fill="black" stroke="black" points="79.0845,-501.048 72.9552,-510.141 78.2373,-505.975 77.3902,-510.903 77.3902,-510.903 77.3902,-510.903 78.2373,-505.975 81.8251,-511.666 79.0845,-501.048 79.0845,-501.048"/>
<ellipse fill="black" stroke="black" cx="116.468" cy="-352.776" rx="4.00001" ry="4.00001"/>
</g>
<!-- User&#45;&gt;Banda -->
<g id="edge24" class="edge"><title>User&#45;&gt;Banda</title>
<path fill="none" stroke="black" d="M126.424,-502.768C132.242,-495.011 138.025,-487.3 143.532,-479.957"/>
<polygon fill="black" stroke="black" points="126.328,-502.895 116.728,-508.195 123.328,-506.895 120.328,-510.895 120.328,-510.895 120.328,-510.895 123.328,-506.895 123.928,-513.595 126.328,-502.895 126.328,-502.895"/>
<ellipse fill="black" stroke="black" cx="146.105" cy="-476.527" rx="4.00002" ry="4.00002"/>
</g>
<!-- User&#45;&gt;Link -->
<g id="edge26" class="edge"><title>User&#45;&gt;Link</title>
<path fill="none" stroke="black" d="M50.4673,-500.771C39.4647,-428.127 32.6048,-320.144 67,-234 71.3288,-223.158 77.903,-212.945 85.4085,-203.676"/>
<polygon fill="black" stroke="black" points="50.488,-500.903 47.5982,-511.481 51.2657,-505.842 52.0435,-510.781 52.0435,-510.781 52.0435,-510.781 51.2657,-505.842 56.4887,-510.081 50.488,-500.903 50.488,-500.903"/>
<ellipse fill="black" stroke="black" cx="88.145" cy="-200.459" rx="4.00002" ry="4.00002"/>
</g>
<!-- User&#45;&gt;Voto -->
<g id="edge22" class="edge"><title>User&#45;&gt;Voto</title>
<path fill="none" stroke="black" d="M42.8174,-501.021C40.8452,-491.972 39.1654,-482.834 38,-474 34.4244,-446.896 37.0047,-264.798 40,-234 45.1529,-181.017 57.0194,-120.943 65.7257,-81.2121"/>
<polygon fill="black" stroke="black" points="42.8218,-501.041 40.676,-511.795 43.9417,-505.914 45.0616,-510.787 45.0616,-510.787 45.0616,-510.787 43.9417,-505.914 49.4473,-509.779 42.8218,-501.041 42.8218,-501.041"/>
<ellipse fill="black" stroke="black" cx="66.6674" cy="-76.9581" rx="4.00001" ry="4.00001"/>
</g>
</g>
</svg>
